<svg version="1.1" preserveAspectRatio="none" xmlns="http://www.w3.org/2000/svg" width="500" height="500" viewBox="0 0 500 500"><rect width="100%" height="100%" fill="#0F222D" fill-opacity="1"/><svg viewBox="2697.5234 2189.9085 596.6887 234" width="333" height="130.59070835428926" x="83.5px" y="184.7046px" xmlns="http://www.w3.org/2000/svg" xmlns:xlink="http://www.w3.org/1999/xlink" preserveAspectRatio="none"><defs></defs><style>.background {fill:#0F222D;fill-opacity:1;}.icon1 {fill:#FFF5D0;fill-opacity:1;}.icon1-str {stroke:#FFF5D0;stroke-opacity:1;}.icon2 {fill:#BA3521;fill-opacity:1;}.icon3 {fill:#F55139;fill-opacity:0.95;}.icon3-str {stroke:#F55139;stroke-opacity:0.95;}.icon4 {fill:#21303A;fill-opacity:1;}.icon5 {fill:#51819E;fill-opacity:1;}.icon6 {fill:#064B75;fill-opacity:0.95;}.icon7 {fill:#ACA58C;fill-opacity:1;}.icon8 {fill:#3E5563;fill-opacity:1;}</style><g opacity="1" transform="rotate(0 2873.5231 2189.9085)">
<svg width="420.689" height="180" x="2873.5231" y="2189.9085" version="1.1" preserveAspectRatio="none" viewBox="0 0 420.689 180">
  <defs><rect x="0" y="0" width="420.689" height="180" rx="0px" ry="0px" id="id-B7crM0kCi1736104463631"></rect></defs><use class="icon1 icon3-str" style="stroke-width:0;" xlink:href="#id-B7crM0kCi1736104463631"></use>
</svg>
</g><g opacity="1" transform="rotate(0 2723.5281 2399.9085)">
<svg width="544.6794" height="24" x="2723.5281" y="2399.9085" version="1.1" preserveAspectRatio="none" viewBox="4.2 -30.28 697.1999999999999 30.720000000000002">
  <g transform="matrix(1 0 0 1 0 0)" class="icon1"><path id="id-6izo4zJp31" d="M24.04 0L13.32-12.44L8.20-7.24L8.20 0L4.20 0L4.20-28L8.20-28L8.20-12.36L23.40-28L27.96-28L16-15.40L28.72 0L24.04 0Z M37.68-17.64Q38.68-19.48 40.64-20.44Q42.60-21.40 45.40-21.40L45.40-21.40L45.40-17.68Q45.08-17.72 44.52-17.72L44.52-17.72Q41.40-17.72 39.62-15.86Q37.84-14 37.84-10.56L37.84-10.56L37.84 0L34 0L34-21.20L37.68-21.20L37.68-17.64Z M52.12 0L52.12-21.20L55.96-21.20L55.96 0L52.12 0ZM54.04-25.28Q52.92-25.28 52.18-26Q51.44-26.72 51.44-27.76L51.44-27.76Q51.44-28.80 52.18-29.54Q52.92-30.28 54.04-30.28L54.04-30.28Q55.16-30.28 55.90-29.58Q56.64-28.88 56.64-27.84L56.64-27.84Q56.64-26.76 55.90-26.02Q55.16-25.28 54.04-25.28L54.04-25.28Z M71.36 0.24Q68.76 0.24 66.36-0.46Q63.96-1.16 62.60-2.24L62.60-2.24L64.20-5.28Q65.60-4.28 67.60-3.68Q69.60-3.08 71.64-3.08L71.64-3.08Q76.68-3.08 76.68-5.96L76.68-5.96Q76.68-6.92 76-7.48Q75.32-8.04 74.30-8.30Q73.28-8.56 71.40-8.88L71.40-8.88Q68.84-9.28 67.22-9.80Q65.60-10.32 64.44-11.56Q63.28-12.80 63.28-15.04L63.28-15.04Q63.28-17.92 65.68-19.66Q68.08-21.40 72.12-21.40L72.12-21.40Q74.24-21.40 76.36-20.88Q78.48-20.36 79.84-19.48L79.84-19.48L78.20-16.44Q75.60-18.12 72.08-18.12L72.08-18.12Q69.64-18.12 68.36-17.32Q67.08-16.52 67.08-15.20L67.08-15.20Q67.08-14.16 67.80-13.56Q68.52-12.96 69.58-12.68Q70.64-12.40 72.56-12.04L72.56-12.04Q75.12-11.60 76.70-11.10Q78.28-10.60 79.40-9.40Q80.52-8.20 80.52-6.04L80.52-6.04Q80.52-3.16 78.06-1.46Q75.60 0.24 71.36 0.24L71.36 0.24Z M98.64-21.40Q102.68-21.40 105.06-19.06Q107.44-16.72 107.44-12.20L107.44-12.20L107.44 0L103.60 0L103.60-11.76Q103.60-14.84 102.12-16.40Q100.64-17.96 97.88-17.96L97.88-17.96Q94.76-17.96 92.96-16.14Q91.16-14.32 91.16-10.92L91.16-10.92L91.16 0L87.32 0L87.32-29.68L91.16-29.68L91.16-18.20Q92.36-19.72 94.30-20.56Q96.24-21.40 98.64-21.40L98.64-21.40Z M127.88-21.40Q131.92-21.40 134.30-19.06Q136.68-16.72 136.68-12.20L136.68-12.20L136.68 0L132.84 0L132.84-11.76Q132.84-14.84 131.36-16.40Q129.88-17.96 127.12-17.96L127.12-17.96Q124.00-17.96 122.20-16.14Q120.40-14.32 120.40-10.92L120.40-10.92L120.40 0L116.56 0L116.56-21.20L120.24-21.20L120.24-18Q121.40-19.64 123.38-20.52Q125.36-21.40 127.88-21.40L127.88-21.40Z M153.52-21.40Q157.92-21.40 160.26-19.24Q162.60-17.08 162.60-12.80L162.60-12.80L162.60 0L158.96 0L158.96-2.80Q158.00-1.32 156.22-0.54Q154.44 0.24 152.00 0.24L152.00 0.24Q148.44 0.24 146.30-1.48Q144.16-3.20 144.16-6L144.16-6Q144.16-8.80 146.20-10.50Q148.24-12.20 152.68-12.20L152.68-12.20L158.76-12.20L158.76-12.96Q158.76-15.44 157.32-16.76Q155.88-18.08 153.08-18.08L153.08-18.08Q151.20-18.08 149.40-17.46Q147.60-16.84 146.36-15.80L146.36-15.80L144.76-18.68Q146.40-20 148.68-20.70Q150.96-21.40 153.52-21.40L153.52-21.40ZM152.64-2.72Q154.84-2.72 156.44-3.70Q158.04-4.68 158.76-6.48L158.76-6.48L158.76-9.44L152.84-9.44Q147.96-9.44 147.96-6.16L147.96-6.16Q147.96-4.56 149.20-3.64Q150.44-2.72 152.64-2.72L152.64-2.72Z M189.04-3.48L205.36-3.48L205.36 0L185.04 0L185.04-28L204.80-28L204.80-24.52L189.04-24.52L189.04-15.92L203.08-15.92L203.08-12.52L189.04-12.52L189.04-3.48Z M213.28 0L213.28-29.68L217.12-29.68L217.12 0L213.28 0Z M245.60-10.48Q245.60-10.04 245.52-9.32L245.52-9.32L228.32-9.32Q228.68-6.52 230.78-4.82Q232.88-3.12 236.00-3.12L236.00-3.12Q239.80-3.12 242.12-5.68L242.12-5.68L244.24-3.20Q242.80-1.52 240.66-0.64Q238.52 0.24 235.88 0.24L235.88 0.24Q232.52 0.24 229.92-1.14Q227.32-2.52 225.90-5Q224.48-7.48 224.48-10.60L224.48-10.60Q224.48-13.68 225.86-16.16Q227.24-18.64 229.66-20.02Q232.08-21.40 235.12-21.40L235.12-21.40Q238.16-21.40 240.54-20.02Q242.92-18.64 244.26-16.16Q245.60-13.68 245.60-10.48L245.60-10.48ZM235.12-18.16Q232.36-18.16 230.50-16.48Q228.64-14.80 228.32-12.08L228.32-12.08L241.92-12.08Q241.60-14.76 239.74-16.46Q237.88-18.16 235.12-18.16L235.12-18.16Z M262.16 0.24Q258.92 0.24 256.38-1.16Q253.84-2.56 252.40-5.02Q250.96-7.48 250.96-10.60L250.96-10.60Q250.96-13.72 252.40-16.18Q253.84-18.64 256.38-20.02Q258.92-21.40 262.16-21.40L262.16-21.40Q265.04-21.40 267.30-20.24Q269.56-19.08 270.80-16.88L270.80-16.88L267.88-15Q266.88-16.52 265.40-17.28Q263.92-18.04 262.12-18.04L262.12-18.04Q260.04-18.04 258.38-17.12Q256.72-16.20 255.78-14.50Q254.84-12.80 254.84-10.60L254.84-10.60Q254.84-8.36 255.78-6.66Q256.72-4.96 258.38-4.04Q260.04-3.12 262.12-3.12L262.12-3.12Q263.92-3.12 265.40-3.88Q266.88-4.64 267.88-6.16L267.88-6.16L270.80-4.32Q269.56-2.12 267.30-0.94Q265.04 0.24 262.16 0.24L262.16 0.24Z M288.76-4L289.96-1.24Q289.12-0.52 287.88-0.14Q286.64 0.24 285.32 0.24L285.32 0.24Q282.12 0.24 280.36-1.48Q278.60-3.20 278.60-6.40L278.60-6.40L278.60-18.04L275-18.04L275-21.20L278.60-21.20L278.60-25.84L282.44-25.84L282.44-21.20L288.52-21.20L288.52-18.04L282.44-18.04L282.44-6.56Q282.44-4.84 283.30-3.92Q284.16-3 285.76-3L285.76-3Q287.52-3 288.76-4L288.76-4Z M300.28-17.64Q301.28-19.48 303.24-20.44Q305.20-21.40 308-21.40L308-21.40L308-17.68Q307.68-17.72 307.12-17.72L307.12-17.72Q304-17.72 302.22-15.86Q300.44-14 300.44-10.56L300.44-10.56L300.44 0L296.60 0L296.60-21.20L300.28-21.20L300.28-17.64Z M314.72 0L314.72-21.20L318.56-21.20L318.56 0L314.72 0ZM316.64-25.28Q315.52-25.28 314.78-26Q314.04-26.72 314.04-27.76L314.04-27.76Q314.04-28.80 314.78-29.54Q315.52-30.28 316.64-30.28L316.64-30.28Q317.76-30.28 318.50-29.58Q319.24-28.88 319.24-27.84L319.24-27.84Q319.24-26.76 318.50-26.02Q317.76-25.28 316.64-25.28L316.64-25.28Z M337.12 0.24Q333.88 0.24 331.34-1.16Q328.80-2.56 327.36-5.02Q325.92-7.48 325.92-10.60L325.92-10.60Q325.92-13.72 327.36-16.18Q328.80-18.64 331.34-20.02Q333.88-21.40 337.12-21.40L337.12-21.40Q340-21.40 342.26-20.24Q344.52-19.08 345.76-16.88L345.76-16.88L342.84-15Q341.84-16.52 340.36-17.28Q338.88-18.04 337.08-18.04L337.08-18.04Q335-18.04 333.34-17.12Q331.68-16.20 330.74-14.50Q329.80-12.80 329.80-10.60L329.80-10.60Q329.80-8.36 330.74-6.66Q331.68-4.96 333.34-4.04Q335-3.12 337.08-3.12L337.08-3.12Q338.88-3.12 340.36-3.88Q341.84-4.64 342.84-6.16L342.84-6.16L345.76-4.32Q344.52-2.12 342.26-0.94Q340 0.24 337.12 0.24L337.12 0.24Z M360.44-21.40Q364.84-21.40 367.18-19.24Q369.52-17.08 369.52-12.80L369.52-12.80L369.52 0L365.88 0L365.88-2.80Q364.92-1.32 363.14-0.54Q361.36 0.24 358.92 0.24L358.92 0.24Q355.36 0.24 353.22-1.48Q351.08-3.20 351.08-6L351.08-6Q351.08-8.80 353.12-10.50Q355.16-12.20 359.60-12.20L359.60-12.20L365.68-12.20L365.68-12.96Q365.68-15.44 364.24-16.76Q362.80-18.08 360-18.08L360-18.08Q358.12-18.08 356.32-17.46Q354.52-16.84 353.28-15.80L353.28-15.80L351.68-18.68Q353.32-20 355.60-20.70Q357.88-21.40 360.44-21.40L360.44-21.40ZM359.56-2.72Q361.76-2.72 363.36-3.70Q364.96-4.68 365.68-6.48L365.68-6.48L365.68-9.44L359.76-9.44Q354.88-9.44 354.88-6.16L354.88-6.16Q354.88-4.56 356.12-3.64Q357.36-2.72 359.56-2.72L359.56-2.72Z M378.64 0L378.64-29.68L382.48-29.68L382.48 0L378.64 0Z M427.76-2.12L425.60 0.44L421.88-3.28Q418.16 0.32 412.52 0.32L412.52 0.32Q409.72 0.32 407.48-0.60Q405.24-1.52 403.98-3.18Q402.72-4.84 402.72-6.96L402.72-6.96Q402.72-9.52 404.30-11.50Q405.88-13.48 409.52-15.56L409.52-15.56Q407.68-17.40 406.92-18.88Q406.16-20.36 406.16-21.96L406.16-21.96Q406.16-24.80 408.22-26.52Q410.28-28.24 413.72-28.24L413.72-28.24Q416.92-28.24 418.80-26.68Q420.68-25.12 420.68-22.40L420.68-22.40Q420.68-20.28 419.30-18.60Q417.92-16.92 414.72-15.08L414.72-15.08L421.64-8.20Q422.84-10.48 423.36-13.28L423.36-13.28L426.44-12.28Q425.72-8.60 424-5.88L424-5.88L427.76-2.12ZM413.72-25.44Q411.84-25.44 410.78-24.50Q409.72-23.56 409.72-22.04L409.72-22.04Q409.72-20.96 410.30-19.96Q410.88-18.96 412.56-17.24L412.56-17.24Q415.32-18.80 416.38-19.92Q417.44-21.04 417.44-22.36L417.44-22.36Q417.44-23.76 416.46-24.60Q415.48-25.44 413.72-25.44L413.72-25.44ZM412.76-2.88Q416.92-2.88 419.60-5.52L419.60-5.52L411.64-13.44Q408.76-11.84 407.62-10.46Q406.48-9.08 406.48-7.36L406.48-7.36Q406.48-5.36 408.22-4.12Q409.96-2.88 412.76-2.88L412.76-2.88Z M468.24 0L465.16-7L450.28-7L447.20 0L443.08 0L455.76-28L459.72-28L472.44 0L468.24 0ZM451.68-10.20L463.76-10.20L457.72-23.92L451.68-10.20Z M493.56-21.20L497.40-21.20L497.40 0L493.76 0L493.76-3.20Q492.60-1.56 490.70-0.66Q488.80 0.24 486.56 0.24L486.56 0.24Q482.32 0.24 479.88-2.10Q477.44-4.44 477.44-9L477.44-9L477.44-21.20L481.28-21.20L481.28-9.44Q481.28-6.36 482.76-4.78Q484.24-3.20 487-3.20L487-3.20Q490.04-3.20 491.80-5.04Q493.56-6.88 493.56-10.24L493.56-10.24L493.56-21.20Z M517.44-4L518.64-1.24Q517.80-0.52 516.56-0.14Q515.32 0.24 514 0.24L514 0.24Q510.80 0.24 509.04-1.48Q507.28-3.20 507.28-6.40L507.28-6.40L507.28-18.04L503.68-18.04L503.68-21.20L507.28-21.20L507.28-25.84L511.12-25.84L511.12-21.20L517.20-21.20L517.20-18.04L511.12-18.04L511.12-6.56Q511.12-4.84 511.98-3.92Q512.84-3 514.44-3L514.44-3Q516.20-3 517.44-4L517.44-4Z M533.64 0.24Q530.48 0.24 527.96-1.16Q525.44-2.56 524.02-5.02Q522.60-7.48 522.60-10.60L522.60-10.60Q522.60-13.72 524.02-16.18Q525.44-18.64 527.96-20.02Q530.48-21.40 533.64-21.40L533.64-21.40Q536.80-21.40 539.30-20.02Q541.80-18.64 543.22-16.18Q544.64-13.72 544.64-10.60L544.64-10.60Q544.64-7.48 543.22-5.02Q541.80-2.56 539.30-1.16Q536.80 0.24 533.64 0.24L533.64 0.24ZM533.64-3.12Q535.68-3.12 537.30-4.06Q538.92-5 539.84-6.70Q540.76-8.40 540.76-10.60L540.76-10.60Q540.76-12.80 539.84-14.50Q538.92-16.20 537.30-17.12Q535.68-18.04 533.64-18.04L533.64-18.04Q531.60-18.04 529.98-17.12Q528.36-16.20 527.42-14.50Q526.48-12.80 526.48-10.60L526.48-10.60Q526.48-8.40 527.42-6.70Q528.36-5 529.98-4.06Q531.60-3.12 533.64-3.12L533.64-3.12Z M578.48-21.40Q582.48-21.40 584.82-19.08Q587.16-16.76 587.16-12.20L587.16-12.20L587.16 0L583.32 0L583.32-11.76Q583.32-14.84 581.90-16.40Q580.48-17.96 577.84-17.96L577.84-17.96Q574.92-17.96 573.20-16.14Q571.48-14.32 571.48-10.92L571.48-10.92L571.48 0L567.64 0L567.64-11.76Q567.64-14.84 566.22-16.40Q564.80-17.96 562.16-17.96L562.16-17.96Q559.24-17.96 557.52-16.14Q555.80-14.32 555.80-10.92L555.80-10.92L555.80 0L551.96 0L551.96-21.20L555.64-21.20L555.64-18.04Q556.80-19.68 558.68-20.54Q560.56-21.40 562.96-21.40L562.96-21.40Q565.44-21.40 567.36-20.40Q569.28-19.40 570.32-17.48L570.32-17.48Q571.52-19.32 573.66-20.36Q575.80-21.40 578.48-21.40L578.48-21.40Z M603.96-21.40Q608.36-21.40 610.70-19.24Q613.04-17.08 613.04-12.80L613.04-12.80L613.04 0L609.40 0L609.40-2.80Q608.44-1.32 606.66-0.54Q604.88 0.24 602.44 0.24L602.44 0.24Q598.88 0.24 596.74-1.48Q594.60-3.20 594.60-6L594.60-6Q594.60-8.80 596.64-10.50Q598.68-12.20 603.12-12.20L603.12-12.20L609.20-12.20L609.20-12.96Q609.20-15.44 607.76-16.76Q606.32-18.08 603.52-18.08L603.52-18.08Q601.64-18.08 599.84-17.46Q598.04-16.84 596.80-15.80L596.80-15.80L595.20-18.68Q596.84-20 599.12-20.70Q601.40-21.40 603.96-21.40L603.96-21.40ZM603.08-2.72Q605.28-2.72 606.88-3.70Q608.48-4.68 609.20-6.48L609.20-6.48L609.20-9.44L603.28-9.44Q598.40-9.44 598.40-6.16L598.40-6.16Q598.40-4.56 599.64-3.64Q600.88-2.72 603.08-2.72L603.08-2.72Z M632.88-4L634.08-1.24Q633.24-0.52 632.00-0.14Q630.76 0.24 629.44 0.24L629.44 0.24Q626.24 0.24 624.48-1.48Q622.72-3.20 622.72-6.40L622.72-6.40L622.72-18.04L619.12-18.04L619.12-21.20L622.72-21.20L622.72-25.84L626.56-25.84L626.56-21.20L632.64-21.20L632.64-18.04L626.56-18.04L626.56-6.56Q626.56-4.84 627.42-3.92Q628.28-3 629.88-3L629.88-3Q631.64-3 632.88-4L632.88-4Z M640.72 0L640.72-21.20L644.56-21.20L644.56 0L640.72 0ZM642.64-25.28Q641.52-25.28 640.78-26Q640.04-26.72 640.04-27.76L640.04-27.76Q640.04-28.80 640.78-29.54Q641.52-30.28 642.64-30.28L642.64-30.28Q643.76-30.28 644.50-29.58Q645.24-28.88 645.24-27.84L645.24-27.84Q645.24-26.76 644.50-26.02Q643.76-25.28 642.64-25.28L642.64-25.28Z M662.96 0.24Q659.80 0.24 657.28-1.16Q654.76-2.56 653.34-5.02Q651.92-7.48 651.92-10.60L651.92-10.60Q651.92-13.72 653.34-16.18Q654.76-18.64 657.28-20.02Q659.80-21.40 662.96-21.40L662.96-21.40Q666.12-21.40 668.62-20.02Q671.12-18.64 672.54-16.18Q673.96-13.72 673.96-10.60L673.96-10.60Q673.96-7.48 672.54-5.02Q671.12-2.56 668.62-1.16Q666.12 0.24 662.96 0.24L662.96 0.24ZM662.96-3.12Q665.00-3.12 666.62-4.06Q668.24-5 669.16-6.70Q670.08-8.40 670.08-10.60L670.08-10.60Q670.08-12.80 669.16-14.50Q668.24-16.20 666.62-17.12Q665.00-18.04 662.96-18.04L662.96-18.04Q660.92-18.04 659.30-17.12Q657.68-16.20 656.74-14.50Q655.80-12.80 655.80-10.60L655.80-10.60Q655.80-8.40 656.74-6.70Q657.68-5 659.30-4.06Q660.92-3.12 662.96-3.12L662.96-3.12Z M692.60-21.40Q696.64-21.40 699.02-19.06Q701.40-16.72 701.40-12.20L701.40-12.20L701.40 0L697.56 0L697.56-11.76Q697.56-14.84 696.08-16.40Q694.60-17.96 691.84-17.96L691.84-17.96Q688.72-17.96 686.92-16.14Q685.12-14.32 685.12-10.92L685.12-10.92L685.12 0L681.28 0L681.28-21.20L684.96-21.20L684.96-18Q686.12-19.64 688.10-20.52Q690.08-21.40 692.60-21.40L692.60-21.40Z"/></g>
</svg>
</g><g opacity="1" transform="rotate(0 2903.5231 2219.9085)">
<svg width="360.689" height="120" x="2903.5231" y="2219.9085" version="1.1" preserveAspectRatio="none" viewBox="3.32 -28 84.16 28">
  <g transform="matrix(1 0 0 1 0 0)" class="background"><path id="id-D6z1nYkh3" d="M22.48 0L13.52-11L9.76-7.08L9.76 0L3.32 0L3.32-28L9.76-28L9.76-14.92L22.16-28L29.36-28L17.76-15.52L30.04 0L22.48 0Z M39.36-5.20L54.60-5.20L54.60 0L32.92 0L32.92-28L54.08-28L54.08-22.80L39.36-22.80L39.36-16.72L52.36-16.72L52.36-11.68L39.36-11.68L39.36-5.20Z M80.68 0L78.20-6L65.20-6L62.72 0L56.08 0L68.56-28L74.96-28L87.48 0L80.68 0ZM67.28-10.92L76.16-10.92L71.72-21.64L67.28-10.92Z"/></g>
</svg>
</g><g opacity="1" transform="rotate(0 2697.5234 2189.9085)">
<svg width="179.9997" height="180" x="2697.5234" y="2189.9085" version="1.1" preserveAspectRatio="none" viewBox="0 0 179.9997 180">
  <defs><rect x="3.5999939999999997" y="3.5999939999999997" width="172.799712" height="172.800012" rx="0px" ry="0px" id="id-tBXipXk0b1736104463631"></rect></defs><use class="background icon1-str" style="stroke-width:7.199987999999999;" xlink:href="#id-tBXipXk0b1736104463631"></use>
</svg>
</g><g opacity="1" transform="rotate(0 2743.2591 2219.9085)">
<svg width="88.5284" height="120" x="2743.2591" y="2219.9085" version="1.1" preserveAspectRatio="none" viewBox="223.2069854736328 211.55101013183594 65.58399963378906 88.89900207519531">
  <g transform="matrix(1 0 0 1 0 0)" class="icon1"><g><path d="M243.855,277.114c2.586,0,5.546-0.536,8.806-1.594c-0.191-6.473-1.762-11.214-4.673-14.104   c-2.265-2.248-5.363-3.388-9.208-3.388c-3.795,0-7.271,1.133-8.626,1.637c-0.024,2.179,0.23,9.372,4.363,13.784   C236.792,275.881,239.934,277.114,243.855,277.114z"></path><path d="M259.337,275.52c3.259,1.058,6.22,1.594,8.807,1.594c0.002,0,0.002,0,0.002,0   c3.924,0,7.068-1.235,9.345-3.669c4.134-4.424,4.381-11.604,4.354-13.779c-1.355-0.504-4.83-1.637-8.628-1.637   c-3.841,0-6.94,1.139-9.208,3.388C261.1,264.304,259.529,269.046,259.337,275.52z"></path><path d="M287.838,298.545h-18.114c-2.775-4.44-7.564-7.271-12.772-7.583v-47.074   c5.682-0.485,10.158-5.261,10.158-11.067v-5.22c1.715-0.657,2.936-2.318,2.936-4.261c0-2.519-2.048-4.566-4.566-4.566h-1.756   v-6.271c0-0.525-0.427-0.952-0.953-0.952c-0.524,0-0.951,0.427-0.951,0.952v6.271H250.18v-6.271c0-0.525-0.427-0.952-0.953-0.952   s-0.953,0.427-0.953,0.952v6.271h-1.758c-2.516,0-4.564,2.047-4.564,4.566c0,1.943,1.221,3.604,2.935,4.261v5.22   c0,5.807,4.477,10.582,10.159,11.067v47.074c-5.208,0.312-9.997,3.143-12.771,7.583h-18.115c-0.526,0-0.953,0.427-0.953,0.953   c0,0.525,0.427,0.952,0.953,0.952h45.026c0,0,0.002,0,0.004,0h18.648c0.526,0,0.953-0.427,0.953-0.952   C288.791,298.971,288.365,298.545,287.838,298.545z"></path></g></g>
</svg>
</g></svg></svg>